<svg width="233" height="136" viewBox="0 0 233 136" fill="none" xmlns="http://www.w3.org/2000/svg">
<path d="M37.228 69.412L27.656 62.459L24 51.206L27.656 39.954L37.228 33H49.062L58.633 39.954L62.289 51.206L58.633 62.459L49.062 69.412H37.228ZM29.935 41.612L26.817 51.212L29.935 60.812L38.098 66.743H48.188L56.351 60.812L59.469 51.212L56.351 41.612L48.188 35.681H38.098L29.935 41.612ZM39.174 48.33L50.374 41.256L47.107 54.095L35.907 61.168L39.174 48.33ZM39.032 56.867L43.611 53.974L45.394 52.848L40.888 49.574L39.032 56.867Z" fill="#21978B"/>
<path d="M76.72 62.36C74.128 62.36 72.088 61.64 70.6 60.2C69.112 58.76 68.368 56.804 68.368 54.332H72.256C72.256 55.772 72.64 56.9 73.408 57.716C74.2 58.532 75.304 58.94 76.72 58.94C78.112 58.94 79.204 58.544 79.996 57.752C80.812 56.936 81.22 55.796 81.22 54.332V35.72H85.108V54.332C85.108 56.804 84.352 58.76 82.84 60.2C81.352 61.64 79.312 62.36 76.72 62.36ZM99.3499 62.36C96.9499 62.36 95.0419 61.676 93.6259 60.308C92.2339 58.916 91.5379 57.032 91.5379 54.656V42.2H95.4259V54.62C95.4259 55.964 95.7739 57.032 96.4699 57.824C97.1659 58.592 98.1259 58.976 99.3499 58.976C100.598 58.976 101.57 58.592 102.266 57.824C102.986 57.032 103.346 55.964 103.346 54.62V42.2H107.234V54.656C107.234 57.032 106.514 58.916 105.074 60.308C103.658 61.676 101.75 62.36 99.3499 62.36ZM113.196 62V42.2H117.048V45.98C117.24 44.684 117.792 43.676 118.704 42.956C119.64 42.212 120.852 41.84 122.34 41.84C124.308 41.84 125.88 42.476 127.056 43.748C128.232 44.996 128.82 46.688 128.82 48.824V62H124.932V49.4C124.932 48.032 124.584 46.988 123.888 46.268C123.192 45.524 122.244 45.152 121.044 45.152C119.82 45.152 118.848 45.536 118.128 46.304C117.432 47.072 117.084 48.14 117.084 49.508V62H113.196ZM137.374 68.48V65.132H142.954C144.034 65.132 144.886 64.832 145.51 64.232C146.134 63.632 146.446 62.816 146.446 61.784V60.308L146.518 56.996C146.206 58.172 145.582 59.084 144.646 59.732C143.734 60.38 142.594 60.704 141.226 60.704C139.186 60.704 137.578 60.044 136.402 58.724C135.226 57.404 134.638 55.592 134.638 53.288V49.292C134.638 47.012 135.226 45.2 136.402 43.856C137.578 42.512 139.186 41.84 141.226 41.84C142.594 41.84 143.734 42.164 144.646 42.812C145.558 43.46 146.17 44.372 146.482 45.548V42.2H150.298V61.856C150.298 63.896 149.638 65.504 148.318 66.68C147.022 67.88 145.246 68.48 142.99 68.48H137.374ZM142.486 57.428C143.71 57.428 144.67 57.056 145.366 56.312C146.086 55.544 146.446 54.476 146.446 53.108V49.508C146.446 48.164 146.086 47.12 145.366 46.376C144.67 45.608 143.71 45.224 142.486 45.224C141.214 45.224 140.23 45.584 139.534 46.304C138.862 47.024 138.526 48.008 138.526 49.256V53.36C138.526 54.632 138.862 55.628 139.534 56.348C140.23 57.068 141.214 57.428 142.486 57.428ZM167.204 62C165.332 62 163.832 61.46 162.704 60.38C161.6 59.276 161.048 57.812 161.048 55.988V39.248H154.388V35.72H164.936V55.916C164.936 56.708 165.152 57.332 165.584 57.788C166.016 58.244 166.604 58.472 167.348 58.472H173.324V62H167.204ZM185.73 62.36C183.306 62.36 181.362 61.652 179.898 60.236C178.434 58.82 177.702 56.888 177.702 54.44V49.76C177.702 47.312 178.434 45.38 179.898 43.964C181.362 42.548 183.306 41.84 185.73 41.84C187.362 41.84 188.778 42.164 189.978 42.812C191.178 43.436 192.102 44.324 192.75 45.476C193.422 46.628 193.758 47.972 193.758 49.508V53.072H181.446V54.692C181.446 56.084 181.83 57.164 182.598 57.932C183.366 58.7 184.41 59.084 185.73 59.084C186.81 59.084 187.71 58.892 188.43 58.508C189.15 58.1 189.582 57.548 189.726 56.852H193.578C193.314 58.532 192.462 59.876 191.022 60.884C189.606 61.868 187.842 62.36 185.73 62.36ZM181.446 49.508V50.336H190.014V49.472C190.014 48.008 189.642 46.88 188.898 46.088C188.154 45.296 187.098 44.9 185.73 44.9C184.362 44.9 183.306 45.308 182.562 46.124C181.818 46.916 181.446 48.044 181.446 49.508Z" fill="#21978B"/>
<path d="M129.78 101C128.028 101 126.636 100.496 125.604 99.488C124.572 98.48 124.056 97.112 124.056 95.384V84.728H118.476V81.2H124.056V75.62H127.944V81.2H135.936V84.728H127.944V95.348C127.944 95.972 128.124 96.488 128.484 96.896C128.844 97.28 129.336 97.472 129.96 97.472H135.756V101H129.78ZM147.406 101.36C145.39 101.36 143.782 100.796 142.582 99.668C141.406 98.516 140.818 97.016 140.818 95.168C140.818 93.296 141.454 91.796 142.726 90.668C143.998 89.516 145.69 88.94 147.802 88.94H153.274V87.5C153.274 85.22 151.99 84.08 149.422 84.08C148.27 84.08 147.346 84.296 146.65 84.728C145.954 85.16 145.582 85.76 145.534 86.528H141.718C141.838 84.872 142.582 83.516 143.95 82.46C145.318 81.38 147.154 80.84 149.458 80.84C151.906 80.84 153.802 81.428 155.146 82.604C156.49 83.756 157.162 85.376 157.162 87.464V101H153.346V97.292H153.31C153.142 98.564 152.542 99.56 151.51 100.28C150.478 101 149.11 101.36 147.406 101.36ZM148.522 98.156C149.986 98.156 151.138 97.808 151.978 97.112C152.842 96.392 153.274 95.432 153.274 94.232V91.676H148.09C147.058 91.676 146.23 91.976 145.606 92.576C145.006 93.176 144.706 93.944 144.706 94.88C144.706 95.888 145.042 96.692 145.714 97.292C146.386 97.868 147.322 98.156 148.522 98.156ZM174.032 101C172.16 101 170.66 100.46 169.532 99.38C168.428 98.276 167.876 96.812 167.876 94.988V78.248H161.216V74.72H171.764V94.916C171.764 95.708 171.98 96.332 172.412 96.788C172.844 97.244 173.432 97.472 174.176 97.472H180.152V101H174.032ZM184.962 101V74.72H188.85V89.156H192.342L197.454 81.2H201.81L195.726 90.704L202.098 101H197.634L192.378 92.504H188.85V101H184.962Z" fill="#21978B"/>
</svg>
